<svg width="29" height="29" viewBox="0 0 29 29" fill="none" xmlns="http://www.w3.org/2000/svg">
<path d="M13.8269 27.6513C6.20526 27.6513 0 21.4466 0 13.8256C0 6.20468 6.20526 0 13.8269 0C21.4486 0 27.6539 6.20468 27.6539 13.8256C27.6539 21.4466 21.4486 27.6513 13.8269 27.6513ZM13.8269 2.02327C7.31141 2.02327 2.02345 7.32422 2.02345 13.8256C2.02345 20.3271 7.31141 25.628 13.8269 25.628C20.3425 25.628 25.6304 20.3271 25.6304 13.8256C25.6304 7.32422 20.3425 2.02327 13.8269 2.02327Z" fill="#FFD600"/>
<path d="M27.9917 29C27.7354 29 27.4791 28.9056 27.2767 28.7032L24.5788 26.0056C24.1876 25.6144 24.1876 24.9669 24.5788 24.5758C24.97 24.1846 25.6175 24.1846 26.0087 24.5758L28.7066 27.2735C29.0978 27.6646 29.0978 28.3121 28.7066 28.7032C28.5043 28.9056 28.248 29 27.9917 29Z" fill="#FFD600"/>
</svg>
